<?xml version="1.0" encoding="UTF-8"?>
<svg width="70px" height="70px" viewBox="0 0 70 70" version="1.1" xmlns="http://www.w3.org/2000/svg" xmlns:xlink="http://www.w3.org/1999/xlink">
    <!-- Generator: Sketch 52.3 (67297) - http://www.bohemiancoding.com/sketch -->
    <title>Illustrations/iframe</title>
    <desc>Created with Sketch.</desc>
    <defs>
        <path d="M2,0 L32,0 C33.1045695,-2.02906125e-16 34,0.8954305 34,2 L34,22 C34,23.1045695 33.1045695,24 32,24 L2,24 C0.8954305,24 1.3527075e-16,23.1045695 0,22 L0,2 C-1.3527075e-16,0.8954305 0.8954305,2.02906125e-16 2,0 Z" id="path-1"></path>
    </defs>
    <g id="Illustrations/iframe" stroke="none" stroke-width="1" fill="none" fill-rule="evenodd">
        <rect id="Rectangle" fill-rule="nonzero" x="0" y="0" width="70" height="70"></rect>
        <g id="Group-4" transform="translate(5.000000, 15.000000)">
            <rect id="Rectangle-2-Copy-2" stroke="#E2E2E2" fill="#FFFFFF" x="0.5" y="0.5" width="53" height="39" rx="2"></rect>
            <path d="M0.5,12.5 L53.5,12.5 L53.5,2.00276013 C53.5,1.17084707 52.8286541,0.5 51.9979097,0.5 L2.00209026,0.5 C1.16999058,0.5 0.5,1.17117552 0.5,2.00276013 L0.5,12.5 Z" id="Rectangle-9-Copy" stroke="#C5C5C5" fill="#F3F3F3"></path>
            <circle id="Oval" fill="#938DB0" fill-rule="nonzero" cx="6.5" cy="6.5" r="1.5"></circle>
            <circle id="Oval" fill="#938DB0" fill-rule="nonzero" cx="11.5" cy="6.5" r="1.5"></circle>
            <circle id="Oval" fill="#938DB0" fill-rule="nonzero" cx="16.5" cy="6.5" r="1.5"></circle>
        </g>
        <g id="Group-3" transform="translate(31.000000, 39.000000)">
            <g id="Rectangle">
                <path stroke="#938DB0" stroke-width="1" d="M2,0.5 C1.17157288,0.5 0.5,1.17157288 0.5,2 L0.5,22 C0.5,22.8284271 1.17157288,23.5 2,23.5 L32,23.5 C32.8284271,23.5 33.5,22.8284271 33.5,22 L33.5,2 C33.5,1.17157288 32.8284271,0.5 32,0.5 L2,0.5 Z" stroke-linejoin="square" fill="#E6E4F2" fill-rule="evenodd"></path>
                <path stroke="#FFFFFF" stroke-width="2" d="M2,-1 L32,-1 C33.6568542,-1 35,0.343145751 35,2 L35,22 C35,23.6568542 33.6568542,25 32,25 L2,25 C0.343145751,25 -1,23.6568542 -1,22 L-1,2 C-1,0.343145751 0.343145751,-1 2,-1 Z"></path>
            </g>
            <path d="M8,9 L13,9 C13.5522847,9 14,9.44771525 14,10 L14,15" id="Rectangle-95" stroke="#938DB0" stroke-width="2" stroke-linecap="round" transform="translate(11.000000, 12.000000) rotate(-135.000000) translate(-11.000000, -12.000000) "></path>
            <path d="M20,9 L25,9 C25.5522847,9 26,9.44771525 26,10 L26,15" id="Rectangle-95" stroke="#938DB0" stroke-width="2" stroke-linecap="round" transform="translate(23.000000, 12.000000) scale(-1, 1) rotate(-135.000000) translate(-23.000000, -12.000000) "></path>
            <rect id="Rectangle-96" fill="#938DB0" transform="translate(18.000000, 12.000000) rotate(16.000000) translate(-18.000000, -12.000000) " x="17" y="3" width="2" height="18" rx="1"></rect>
        </g>
    </g>
</svg>