<?xml version="1.0" encoding="UTF-8"?>
<svg width="70px" height="70px" viewBox="0 0 70 70" version="1.1" xmlns="http://www.w3.org/2000/svg" xmlns:xlink="http://www.w3.org/1999/xlink">
    <!-- Generator: Sketch 43.2 (39069) - http://www.bohemiancoding.com/sketch -->
    <title>-icon-pullquote</title>
    <desc>Created with Sketch.</desc>
    <defs></defs>
    <g id="Page-1" stroke="none" stroke-width="1" fill="none" fill-rule="evenodd">
        <g id="-icon-pullquote">
            <path d="M34.032,23 L26.448,23 L21.168,30.968 C19.44,33.56 18,36.728 18,39.608 C18,44.888 21.456,47.768 25.584,47.768 C29.808,47.768 33.072,44.696 33.072,40.472 C33.072,36.632 30.48,34.136 27.216,33.56 L34.032,23 Z M52.752,23 L45.168,23 L39.888,30.968 C38.16,33.56 36.72,36.728 36.72,39.608 C36.72,44.888 40.176,47.768 44.304,47.768 C48.528,47.768 51.792,44.696 51.792,40.472 C51.792,36.632 49.2,34.136 45.936,33.56 L52.752,23 Z" id="“" stroke="#D34D76" fill="#FAEDF1"></path>
            <rect id="bounding-box" x="0" y="0" width="70" height="70"></rect>
        </g>
    </g>
</svg>