<?xml version="1.0" encoding="UTF-8"?>
<svg width="70px" height="70px" viewBox="0 0 70 70" version="1.1" xmlns="http://www.w3.org/2000/svg" xmlns:xlink="http://www.w3.org/1999/xlink">
    <!-- Generator: Sketch 43.2 (39069) - http://www.bohemiancoding.com/sketch -->
    <title>-icon-numbered</title>
    <desc>Created with Sketch.</desc>
    <defs></defs>
    <g id="Page-1" stroke="none" stroke-width="1" fill="none" fill-rule="evenodd">
        <g id="-icon-numbered">
            <rect id="Rectangle" fill="#E6E6E6" x="25" y="43" width="24" height="2" rx="1"></rect>
            <rect id="Rectangle" fill="#E6E6E6" x="25" y="34" width="18" height="2" rx="1"></rect>
            <rect id="Rectangle" fill="#938DB0" x="25" y="25" width="29" height="2" rx="1"></rect>
            <path d="M19.1308594,28 L17.6220703,28 L17.6220703,23.8691406 L17.6367188,23.1904297 L17.6611328,22.4482422 C17.4104805,22.6988945 17.2363286,22.8632809 17.1386719,22.9414062 L16.3183594,23.6005859 L15.5908203,22.6923828 L17.890625,20.8613281 L19.1308594,20.8613281 L19.1308594,28 Z" id="1" fill="#938DB0" opacity="0.900000036"></path>
            <path d="M19.2871094,37 L16.1787109,37 L16.1787109,36.2382812 L17.2246094,35.1806641 C17.523439,34.8681625 17.7187495,34.6547857 17.8105469,34.5405273 C17.9023442,34.426269 17.9663084,34.3281254 18.0024414,34.2460938 C18.0385744,34.1640621 18.0566406,34.0781254 18.0566406,33.9882812 C18.0566406,33.8769526 18.0205082,33.7890628 17.9482422,33.7246094 C17.8759762,33.6601559 17.7744147,33.6279297 17.6435547,33.6279297 C17.5087884,33.6279297 17.3725593,33.6665035 17.2348633,33.7436523 C17.0971673,33.8208012 16.9414071,33.9345696 16.7675781,34.0849609 L16.1318359,33.3408203 C16.3525402,33.1435537 16.5380852,33.0024418 16.6884766,32.9174805 C16.8388679,32.8325191 17.0024405,32.7675783 17.1791992,32.7226562 C17.3559579,32.6777342 17.5546864,32.6552734 17.7753906,32.6552734 C18.0527358,32.6552734 18.3002919,32.7041011 18.5180664,32.8017578 C18.7358409,32.8994146 18.9047846,33.0385733 19.0249023,33.2192383 C19.1450201,33.3999032 19.2050781,33.6025379 19.2050781,33.8271484 C19.2050781,33.995118 19.1840822,34.1503899 19.1420898,34.2929688 C19.1000974,34.4355476 19.0351567,34.5756829 18.9472656,34.7133789 C18.8593746,34.8510749 18.7426765,34.996093 18.597168,35.1484375 C18.4516594,35.300782 18.1416039,35.5898416 17.6669922,36.015625 L17.6669922,36.0449219 L19.2871094,36.0449219 L19.2871094,37 Z" id="2" fill="#E6E6E6"></path>
            <path d="M19.1435547,42.6455078 C19.1435547,42.9111341 19.0625008,43.1391592 18.9003906,43.3295898 C18.7382804,43.5200205 18.5039078,43.6582027 18.1972656,43.7441406 L18.1972656,43.7617188 C18.9121129,43.8515629 19.2695312,44.1894502 19.2695312,44.7753906 C19.2695312,45.1738301 19.111818,45.4873035 18.7963867,45.7158203 C18.4809555,45.9443371 18.0429716,46.0585938 17.4824219,46.0585938 C17.251952,46.0585938 17.0385752,46.0419924 16.8422852,46.0087891 C16.6459951,45.9755858 16.4335949,45.9150395 16.2050781,45.8271484 L16.2050781,44.8662109 C16.3925791,44.9619145 16.5834951,45.0327146 16.777832,45.0786133 C16.9721689,45.1245119 17.1513664,45.1474609 17.3154297,45.1474609 C17.5693372,45.1474609 17.754394,45.1118168 17.8706055,45.0405273 C17.986817,44.9692379 18.0449219,44.8574226 18.0449219,44.7050781 C18.0449219,44.58789 18.0146487,44.4975589 17.9541016,44.434082 C17.8935544,44.3706052 17.7958991,44.3227541 17.6611328,44.2905273 C17.5263665,44.2583006 17.350587,44.2421875 17.1337891,44.2421875 L16.8701172,44.2421875 L16.8701172,43.3720703 L17.1396484,43.3720703 C17.727542,43.3720703 18.0214844,43.2216812 18.0214844,42.9208984 C18.0214844,42.8076166 17.9780278,42.7236331 17.8911133,42.6689453 C17.8041988,42.6142575 17.6875007,42.5869141 17.5410156,42.5869141 C17.2675768,42.5869141 16.9843765,42.67871 16.6914062,42.8623047 L16.2109375,42.0888672 C16.4375011,41.9326164 16.6694324,41.8212894 16.9067383,41.7548828 C17.1440442,41.6884762 17.4160141,41.6552734 17.7226562,41.6552734 C18.1660178,41.6552734 18.5136706,41.7431632 18.765625,41.9189453 C19.0175794,42.0947274 19.1435547,42.3369125 19.1435547,42.6455078 Z" id="3" fill="#E6E6E6"></path>
            <rect id="bounding-box" x="0" y="0" width="70" height="70"></rect>
        </g>
    </g>
</svg>