<?xml version="1.0" encoding="UTF-8"?>
<svg width="70px" height="70px" viewBox="0 0 70 70" version="1.1" xmlns="http://www.w3.org/2000/svg" xmlns:xlink="http://www.w3.org/1999/xlink">
    <!-- Generator: Sketch 47.1 (45422) - http://www.bohemiancoding.com/sketch -->
    <title>-icon-code-block</title>
    <desc>Created with Sketch.</desc>
    <defs></defs>
    <g id="Page-1" stroke="none" stroke-width="1" fill="none" fill-rule="evenodd">
        <g id="-icon-code-block">
            <path d="M40,49 L45,49 L45,49 C45.5522847,49 46,49.4477153 46,50 L46,55" id="Rectangle-95" stroke="#938DB0" stroke-width="2" stroke-linecap="round" transform="translate(43.000000, 52.000000) rotate(-135.000000) translate(-43.000000, -52.000000) "></path>
            <path d="M52,49 L57,49 L57,49 C57.5522847,49 58,49.4477153 58,50 L58,55" id="Rectangle-95" stroke="#938DB0" stroke-width="2" stroke-linecap="round" transform="translate(55.000000, 52.000000) scale(-1, 1) rotate(-135.000000) translate(-55.000000, -52.000000) "></path>
            <rect id="Rectangle-96" fill="#938DB0" transform="translate(50.000000, 52.000000) rotate(16.000000) translate(-50.000000, -52.000000) " x="49" y="43" width="2" height="18" rx="1"></rect>
            <rect id="Rectangle-97" fill="#938DB0" x="10" y="19" width="34" height="2" rx="1"></rect>
            <rect id="Rectangle-97" fill="#938DB0" x="19" y="28" width="41" height="2" rx="1"></rect>
            <rect id="Rectangle-97" fill="#938DB0" x="19" y="37" width="41" height="2" rx="1"></rect>
            <rect id="Rectangle-97" fill="#938DB0" x="10" y="46" width="22" height="2" rx="1"></rect>
            <rect id="Rectangle-97" fill="#938DB0" x="19" y="55" width="13" height="2" rx="1"></rect>
        </g>
    </g>
</svg>